ffmpeg started on 2016-12-08 at 16:45:05
Report written to "Output/x264/results/ffmpeg/crowd_run_2160p50veryslow4500k.log"
Command line:
Tools/ffmpeg/ffmpeg -benchmark -y -i Input/y4m/crowd_run_2160p50.y4m -c:v libx264 -preset veryslow -b:v 4500k -an Output/x264/encoded/crowd_run_2160p50veryslow4500k.mkv
ffmpeg version N-82227-gdb23fde Copyright (c) 2000-2016 the FFmpeg developers
  built with gcc 5.4.0 (Ubuntu 5.4.0-6ubuntu1~16.04.2) 20160609
  configuration: --prefix=/home/jaroslav/ffmpeg_build --pkg-config-flags=--static --extra-cflags=-I/home/jaroslav/ffmpeg_build/include --extra-ldflags=-L/home/jaroslav/ffmpeg_build/lib --bindir=/home/jaroslav/bin --enable-gpl --enable-libass --enable-libfdk-aac --enable-libfreetype --enable-libmp3lame --enable-libopus --enable-libtheora --enable-libvorbis --enable-libvpx --enable-libx264 --enable-libx265 --enable-nvenc --enable-libmfx --enable-libxvid --enable-libgsm --enable-libopencore-amrnb --enable-version3 --enable-nonfree
  libavutil      55. 35.100 / 55. 35.100
  libavcodec     57. 66.101 / 57. 66.101
  libavformat    57. 57.100 / 57. 57.100
  libavdevice    57.  2.100 / 57.  2.100
  libavfilter     6. 66.100 /  6. 66.100
  libswscale      4.  3.100 /  4.  3.100
  libswresample   2.  4.100 /  2.  4.100
  libpostproc    54.  2.100 / 54.  2.100
Input #0, yuv4mpegpipe, from 'Input/y4m/crowd_run_2160p50.y4m':
  Duration: 00:00:10.00, start: 0.000000, bitrate: 4976642 kb/s
    Stream #0:0: Video: rawvideo (I420 / 0x30323449), yuv420p(progressive), 3840x2160, SAR 1:1 DAR 16:9, 50 fps, 50 tbr, 50 tbn, 50 tbc
[libx264 @ 0x3bec1c0] using SAR=1/1
[libx264 @ 0x3bec1c0] DPB size (16 frames, 518400 mbs) > level limit (5 frames, 184320 mbs)
[libx264 @ 0x3bec1c0] using cpu capabilities: MMX2 SSE2Fast SSSE3 SSE4.2 AVX FMA3 AVX2 LZCNT BMI2
[libx264 @ 0x3bec1c0] profile High, level 5.2
[libx264 @ 0x3bec1c0] 264 - core 148 - H.264/MPEG-4 AVC codec - Copyleft 2003-2016 - http://www.videolan.org/x264.html - options: cabac=1 ref=16 deblock=1:0:0 analyse=0x3:0x133 me=umh subme=10 psy=1 psy_rd=1.00:0.00 mixed_ref=1 me_range=24 chroma_me=1 trellis=2 8x8dct=1 cqm=0 deadzone=21,11 fast_pskip=1 chroma_qp_offset=-2 threads=6 lookahead_threads=1 sliced_threads=0 nr=0 decimate=1 interlaced=0 bluray_compat=0 constrained_intra=0 bframes=8 b_pyramid=2 b_adapt=2 b_bias=0 direct=3 weightb=1 open_gop=0 weightp=2 keyint=250 keyint_min=25 scenecut=40 intra_refresh=0 rc_lookahead=60 rc=abr mbtree=1 bitrate=4500 ratetol=1.0 qcomp=0.60 qpmin=0 qpmax=69 qpstep=4 ip_ratio=1.40 aq=1:1.00
Output #0, matroska, to 'Output/x264/encoded/crowd_run_2160p50veryslow4500k.mkv':
  Metadata:
    encoder         : Lavf57.57.100
    Stream #0:0: Video: h264 (libx264) (H264 / 0x34363248), yuv420p, 3840x2160 [SAR 1:1 DAR 16:9], q=-1--1, 4500 kb/s, 50 fps, 1k tbn, 50 tbc
    Metadata:
      encoder         : Lavc57.66.101 libx264
    Side data:
      cpb: bitrate max/min/avg: 0/0/4500000 buffer size: 0 vbv_delay: -1
Stream mapping:
  Stream #0:0 -> #0:0 (rawvideo (native) -> h264 (libx264))
Press [q] to stop, [?] for help
frame=   19 fps=0.0 q=0.0 size=       0kB time=00:00:00.00 bitrate=N/A speed=   0x    frame=   24 fps= 23 q=0.0 size=       0kB time=00:00:00.00 bitrate=N/A speed=   0x    frame=   36 fps= 23 q=0.0 size=       0kB time=00:00:00.00 bitrate=N/A speed=   0x    frame=   47 fps= 23 q=0.0 size=       0kB time=00:00:00.00 bitrate=N/A speed=   0x    frame=   57 fps= 22 q=0.0 size=       0kB time=00:00:00.00 bitrate=N/A speed=   0x    frame=   67 fps= 22 q=0.0 size=       0kB time=00:00:00.00 bitrate=N/A speed=   0x    frame=   72 fps=6.8 q=0.0 size=       0kB time=00:00:00.00 bitrate=N/A speed=   0x    frame=   77 fps=6.6 q=49.0 size=       1kB time=-00:00:00.01 bitrate=N/A speed=N/A    frame=   78 fps=6.2 q=45.0 size=       1kB time=00:00:00.00 bitrate=5888.0kbits/s speed=8e-05x    frame=   82 fps=5.9 q=53.0 size=       1kB time=00:00:00.08 bitrate=  72.7kbits/s speed=0.0058x    frame=   86 fps=5.5 q=56.0 size=       1kB time=00:00:00.16 bitrate=  36.6kbits/s speed=0.0102x    frame=   90 fps=5.2 q=56.0 size=       1kB time=00:00:00.24 bitrate=  24.4kbits/s speed=0.0138x    frame=   94 fps=4.9 q=56.0 size=       1kB time=00:00:00.32 bitrate=  18.3kbits/s speed=0.0169x    frame=   96 fps=4.9 q=56.0 size=       1kB time=00:00:00.36 bitrate=  16.3kbits/s speed=0.0183x    frame=   97 fps=4.8 q=55.0 size=       1kB time=00:00:00.38 bitrate=  15.5kbits/s speed=0.0189x    frame=   99 fps=4.5 q=56.0 size=       1kB time=00:00:00.42 bitrate=  14.0kbits/s speed=0.0192x    frame=  100 fps=4.3 q=55.0 size=       1kB time=00:00:00.44 bitrate=  13.4kbits/s speed=0.0189x    frame=  102 fps=4.3 q=55.0 size=       1kB time=00:00:00.48 bitrate=  12.2kbits/s speed=0.0201x    frame=  103 fps=4.2 q=55.0 size=       1kB time=00:00:00.50 bitrate=  11.8kbits/s speed=0.0204x    frame=  104 fps=4.0 q=55.0 size=       1kB time=00:00:00.52 bitrate=  11.3kbits/s speed=0.0203x    frame=  106 fps=3.9 q=55.0 size=       1kB time=00:00:00.56 bitrate=  10.5kbits/s speed=0.0207x    frame=  107 fps=3.8 q=55.0 size=       1kB time=00:00:00.58 bitrate=  10.1kbits/s speed=0.0207x    frame=  108 fps=3.7 q=55.0 size=       1kB time=00:00:00.60 bitrate=   9.8kbits/s speed=0.0207x    frame=  110 fps=3.7 q=55.0 size=       1kB time=00:00:00.64 bitrate=   9.2kbits/s speed=0.0217x    frame=  112 fps=3.5 q=55.0 size=       1kB time=00:00:00.68 bitrate=   8.6kbits/s speed=0.0214x    frame=  114 fps=3.5 q=55.0 size=       1kB time=00:00:00.72 bitrate=   8.2kbits/s speed=0.0222x    frame=  115 fps=3.4 q=55.0 size=       1kB time=00:00:00.74 bitrate=   7.9kbits/s speed=0.022x    frame=  116 fps=3.4 q=55.0 size=       1kB time=00:00:00.76 bitrate=   7.7kbits/s speed=0.022x    frame=  118 fps=3.3 q=55.0 size=       1kB time=00:00:00.80 bitrate=   7.4kbits/s speed=0.0223x    frame=  121 fps=3.2 q=55.0 size=       1kB time=00:00:00.86 bitrate=   6.8kbits/s speed=0.0226x    frame=  124 fps=3.1 q=55.0 size=       1kB time=00:00:00.92 bitrate=   6.4kbits/s speed=0.0231x    frame=  125 fps=3.0 q=55.0 size=       1kB time=00:00:00.94 bitrate=   6.3kbits/s speed=0.0229x    frame=  128 fps=3.0 q=54.0 size=       1kB time=00:00:01.00 bitrate=   5.9kbits/s speed=0.0233x    frame=  129 fps=3.0 q=55.0 size=       1kB time=00:00:01.02 bitrate=   5.8kbits/s speed=0.0234x    frame=  130 fps=2.9 q=54.0 size=       1kB time=00:00:01.04 bitrate=   5.7kbits/s speed=0.0235x    frame=  131 fps=2.9 q=54.0 size=       1kB time=00:00:01.06 bitrate=   5.5kbits/s speed=0.0235x    frame=  134 fps=2.8 q=54.0 size=       1kB time=00:00:01.12 bitrate=   5.3kbits/s speed=0.0236x    frame=  137 fps=2.8 q=54.0 size=       1kB time=00:00:01.18 bitrate=   5.0kbits/s speed=0.0243x    frame=  138 fps=2.8 q=54.0 size=       1kB time=00:00:01.20 bitrate=   4.9kbits/s speed=0.0242x    frame=  140 fps=2.7 q=54.0 size=       1kB time=00:00:01.24 bitrate=   4.7kbits/s speed=0.0243x    frame=  141 fps=2.7 q=54.0 size=       1kB time=00:00:01.26 bitrate=   4.7kbits/s speed=0.0243x    frame=  142 fps=2.7 q=54.0 size=       1kB time=00:00:01.28 bitrate=   4.6kbits/s speed=0.0244x    frame=  143 fps=2.7 q=54.0 size=       1kB time=00:00:01.30 bitrate=   4.5kbits/s speed=0.0244x    frame=  145 fps=2.7 q=54.0 size=       1kB time=00:00:01.34 bitrate=   4.4kbits/s speed=0.0246x    frame=  146 fps=2.6 q=54.0 size=       1kB time=00:00:01.36 bitrate=   4.3kbits/s speed=0.0242x    frame=  148 fps=2.6 q=54.0 size=       1kB time=00:00:01.40 bitrate=   4.2kbits/s speed=0.0247x    frame=  149 fps=2.6 q=54.0 size=       1kB time=00:00:01.42 bitrate=   4.1kbits/s speed=0.0246x    frame=  150 fps=2.6 q=54.0 size=       1kB time=00:00:01.44 bitrate=   4.1kbits/s speed=0.0245x    frame=  151 fps=2.5 q=54.0 size=       1kB time=00:00:01.46 bitrate=   4.0kbits/s speed=0.0244x    frame=  152 fps=2.5 q=54.0 size=       1kB time=00:00:01.48 bitrate=   4.0kbits/s speed=0.0245x    frame=  154 fps=2.5 q=54.0 size=       1kB time=00:00:01.52 bitrate=   3.9kbits/s speed=0.025x    frame=  155 fps=2.5 q=54.0 size=       1kB time=00:00:01.54 bitrate=   3.8kbits/s speed=0.0249x    frame=  157 fps=2.4 q=54.0 size=       1kB time=00:00:01.58 bitrate=   3.7kbits/s speed=0.0247x    frame=  158 fps=2.4 q=54.0 size=       1kB time=00:00:01.60 bitrate=   3.7kbits/s speed=0.0247x    frame=  161 fps=2.4 q=54.0 size=       1kB time=00:00:01.66 bitrate=   3.5kbits/s speed=0.0251x    frame=  162 fps=2.4 q=54.0 size=       1kB time=00:00:01.68 bitrate=   3.5kbits/s speed=0.0252x    frame=  164 fps=2.4 q=54.0 size=       1kB time=00:00:01.72 bitrate=   3.4kbits/s speed=0.0252x    frame=  165 fps=2.4 q=54.0 size=       1kB time=00:00:01.74 bitrate=   3.4kbits/s speed=0.025x    frame=  166 fps=2.4 q=53.0 size=       1kB time=00:00:01.76 bitrate=   3.3kbits/s speed=0.025x    frame=  169 fps=2.4 q=54.0 size=       1kB time=00:00:01.82 bitrate=   3.2kbits/s speed=0.0255x    frame=  171 fps=2.3 q=53.0 size=       1kB time=00:00:01.86 bitrate=   3.2kbits/s speed=0.0255x    frame=  172 fps=2.3 q=53.0 size=       1kB time=00:00:01.88 bitrate=   3.1kbits/s speed=0.0252x    frame=  173 fps=2.3 q=53.0 size=       1kB time=00:00:01.90 bitrate=   3.1kbits/s speed=0.0252x    frame=  176 fps=2.3 q=53.0 size=       1kB time=00:00:01.96 bitrate=   3.0kbits/s speed=0.0258x    frame=  177 fps=2.3 q=53.0 size=       1kB time=00:00:01.98 bitrate=   3.0kbits/s speed=0.0258x    frame=  178 fps=2.3 q=53.0 size=       1kB time=00:00:02.00 bitrate=   2.9kbits/s speed=0.0256x    frame=  179 fps=2.2 q=53.0 size=       1kB time=00:00:02.02 bitrate=   2.9kbits/s speed=0.0253x    frame=  182 fps=2.3 q=53.0 size=       1kB time=00:00:02.08 bitrate=   2.8kbits/s speed=0.0259x    frame=  183 fps=2.2 q=53.0 size=       1kB time=00:00:02.10 bitrate=   2.8kbits/s speed=0.0257x    frame=  184 fps=2.2 q=53.0 size=       1kB time=00:00:02.12 bitrate=   2.8kbits/s speed=0.0257x    frame=  185 fps=2.2 q=53.0 size=       1kB time=00:00:02.14 bitrate=   2.8kbits/s speed=0.0258x    frame=  186 fps=2.2 q=53.0 size=       1kB time=00:00:02.16 bitrate=   2.7kbits/s speed=0.0258x    frame=  187 fps=2.2 q=53.0 size=       1kB time=00:00:02.18 bitrate=   2.7kbits/s speed=0.0255x    frame=  188 fps=2.2 q=53.0 size=       1kB time=00:00:02.20 bitrate=   2.7kbits/s speed=0.0256x    frame=  192 fps=2.2 q=53.0 size=       1kB time=00:00:02.28 bitrate=   2.6kbits/s speed=0.0258x    frame=  193 fps=2.2 q=53.0 size=       1kB time=00:00:02.30 bitrate=   2.6kbits/s speed=0.0258x    frame=  194 fps=2.2 q=53.0 size=       1kB time=00:00:02.32 bitrate=   2.5kbits/s speed=0.0258x    frame=  196 fps=2.1 q=53.0 size=       1kB time=00:00:02.36 bitrate=   2.5kbits/s speed=0.0259x    frame=  197 fps=2.1 q=53.0 size=       1kB time=00:00:02.38 bitrate=   2.5kbits/s speed=0.0259x    frame=  199 fps=2.1 q=53.0 size=       1kB time=00:00:02.42 bitrate=   2.4kbits/s speed=0.0261x    frame=  200 fps=2.1 q=53.0 size=       1kB time=00:00:02.44 bitrate=   2.4kbits/s speed=0.026x    frame=  202 fps=2.1 q=53.0 size=       1kB time=00:00:02.48 bitrate=   2.4kbits/s speed=0.0258x    frame=  203 fps=2.1 q=53.0 size=       1kB time=00:00:02.50 bitrate=   2.4kbits/s speed=0.0259x    frame=  206 fps=2.1 q=53.0 size=       1kB time=00:00:02.56 bitrate=   2.3kbits/s speed=0.0262x    frame=  207 fps=2.1 q=53.0 size=       1kB time=00:00:02.58 bitrate=   2.3kbits/s speed=0.0263x    frame=  208 fps=2.1 q=53.0 size=       1kB time=00:00:02.60 bitrate=   2.3kbits/s speed=0.0261x    frame=  209 fps=2.1 q=53.0 size=       1kB time=00:00:02.62 bitrate=   2.2kbits/s speed=0.0261x    frame=  211 fps=2.1 q=53.0 size=       1kB time=00:00:02.66 bitrate=   2.2kbits/s speed=0.0261x    frame=  213 fps=2.1 q=53.0 size=       1kB time=00:00:02.70 bitrate=   2.2kbits/s speed=0.0264x    frame=  214 fps=2.1 q=53.0 size=       1kB time=00:00:02.72 bitrate=   2.2kbits/s speed=0.0263x    frame=  215 fps=2.0 q=53.0 size=       1kB time=00:00:02.74 bitrate=   2.1kbits/s speed=0.026x    frame=  218 fps=2.1 q=53.0 size=       1kB time=00:00:02.80 bitrate=   2.1kbits/s speed=0.0263x    frame=  219 fps=2.0 q=53.0 size=       1kB time=00:00:02.82 bitrate=   2.1kbits/s speed=0.0264x    frame=  220 fps=2.0 q=53.0 size=       1kB time=00:00:02.84 bitrate=   2.1kbits/s speed=0.026x    frame=  221 fps=2.0 q=53.0 size=       1kB time=00:00:02.86 bitrate=   2.1kbits/s speed=0.026x    frame=  224 fps=2.0 q=53.0 size=       1kB time=00:00:02.92 bitrate=   2.0kbits/s speed=0.0264x    frame=  225 fps=2.0 q=53.0 size=       1kB time=00:00:02.94 bitrate=   2.0kbits/s speed=0.0261x    frame=  226 fps=2.0 q=53.0 size=       1kB time=00:00:02.96 bitrate=   2.0kbits/s speed=0.0261x    frame=  229 fps=2.0 q=53.0 size=       1kB time=00:00:03.02 bitrate=   1.9kbits/s speed=0.0264x    frame=  230 fps=2.0 q=53.0 size=       1kB time=00:00:03.04 bitrate=   1.9kbits/s speed=0.0262x    frame=  231 fps=2.0 q=53.0 size=       1kB time=00:00:03.06 bitrate=   1.9kbits/s speed=0.0262x    frame=  233 fps=2.0 q=53.0 size=       1kB time=00:00:03.10 bitrate=   1.9kbits/s speed=0.0263x    frame=  235 fps=2.0 q=53.0 size=       1kB time=00:00:03.14 bitrate=   1.9kbits/s speed=0.0263x    frame=  236 fps=2.0 q=53.0 size=       1kB time=00:00:03.16 bitrate=   1.9kbits/s speed=0.0262x    frame=  239 fps=2.0 q=53.0 size=       1kB time=00:00:03.22 bitrate=   1.8kbits/s speed=0.0263x    frame=  240 fps=1.9 q=53.0 size=       1kB time=00:00:03.24 bitrate=   1.8kbits/s speed=0.0262x    frame=  241 fps=1.9 q=53.0 size=       1kB time=00:00:03.26 bitrate=   1.8kbits/s speed=0.0263x    frame=  245 fps=1.9 q=53.0 size=       1kB time=00:00:03.34 bitrate=   1.8kbits/s speed=0.0264x    frame=  246 fps=1.9 q=53.0 size=       1kB time=00:00:03.36 bitrate=   1.8kbits/s speed=0.0262x    frame=  247 fps=1.9 q=53.0 size=       1kB time=00:00:03.38 bitrate=   1.7kbits/s speed=0.0262x    frame=  251 fps=1.9 q=53.0 size=       1kB time=00:00:03.46 bitrate=   1.7kbits/s speed=0.0263x    frame=  253 fps=1.9 q=53.0 size=       1kB time=00:00:03.50 bitrate=   1.7kbits/s speed=0.0264x    frame=  255 fps=1.9 q=53.0 size=       1kB time=00:00:03.54 bitrate=   1.7kbits/s speed=0.0265x    frame=  257 fps=1.9 q=53.0 size=       1kB time=00:00:03.58 bitrate=   1.6kbits/s speed=0.0263x    frame=  260 fps=1.9 q=53.0 size=       1kB time=00:00:03.64 bitrate=   1.6kbits/s speed=0.0266x    frame=  261 fps=1.9 q=53.0 size=       1kB time=00:00:03.66 bitrate=   1.6kbits/s speed=0.0265x    frame=  263 fps=1.9 q=53.0 size=       1kB time=00:00:03.70 bitrate=   1.6kbits/s speed=0.0265x    frame=  264 fps=1.9 q=53.0 size=       1kB time=00:00:03.72 bitrate=   1.6kbits/s speed=0.0264x    frame=  265 fps=1.9 q=53.0 size=       1kB time=00:00:03.74 bitrate=   1.6kbits/s speed=0.0264x    frame=  266 fps=1.9 q=53.0 size=       1kB time=00:00:03.76 bitrate=   1.6kbits/s speed=0.0264x    frame=  269 fps=1.9 q=53.0 size=       1kB time=00:00:03.82 bitrate=   1.5kbits/s speed=0.0266x    frame=  270 fps=1.9 q=53.0 size=       1kB time=00:00:03.84 bitrate=   1.5kbits/s speed=0.0266x    frame=  271 fps=1.9 q=53.0 size=       1kB time=00:00:03.86 bitrate=   1.5kbits/s speed=0.0265x    frame=  272 fps=1.9 q=53.0 size=       1kB time=00:00:03.88 bitrate=   1.5kbits/s speed=0.0265x    frame=  274 fps=1.9 q=53.0 size=       1kB time=00:00:03.92 bitrate=   1.5kbits/s speed=0.0266x    frame=  276 fps=1.9 q=53.0 size=       1kB time=00:00:03.96 bitrate=   1.5kbits/s speed=0.0268x    frame=  277 fps=1.8 q=53.0 size=       1kB time=00:00:03.98 bitrate=   1.5kbits/s speed=0.0265x    frame=  278 fps=1.8 q=53.0 size=       1kB time=00:00:04.00 bitrate=   1.5kbits/s speed=0.0265x    frame=  279 fps=1.8 q=53.0 size=       1kB time=00:00:04.02 bitrate=   1.5kbits/s speed=0.0265x    frame=  283 fps=1.8 q=53.0 size=       1kB time=00:00:04.10 bitrate=   1.4kbits/s speed=0.0265x    frame=  285 fps=1.8 q=53.0 size=       1kB time=00:00:04.14 bitrate=   1.4kbits/s speed=0.0266x    frame=  287 fps=1.8 q=53.0 size=       1kB time=00:00:04.18 bitrate=   1.4kbits/s speed=0.0266x    frame=  288 fps=1.8 q=53.0 size=       1kB time=00:00:04.20 bitrate=   1.4kbits/s speed=0.0266x    frame=  290 fps=1.8 q=53.0 size=       1kB time=00:00:04.24 bitrate=   1.4kbits/s speed=0.0267x    frame=  291 fps=1.8 q=53.0 size=       1kB time=00:00:04.26 bitrate=   1.4kbits/s speed=0.0266x    frame=  294 fps=1.8 q=53.0 size=       1kB time=00:00:04.32 bitrate=   1.4kbits/s speed=0.0266x    frame=  295 fps=1.8 q=53.0 size=       1kB time=00:00:04.34 bitrate=   1.4kbits/s speed=0.0266x    frame=  296 fps=1.8 q=53.0 size=       1kB time=00:00:04.36 bitrate=   1.4kbits/s speed=0.0267x    frame=  298 fps=1.8 q=53.0 size=       1kB time=00:00:04.40 bitrate=   1.3kbits/s speed=0.0268x    frame=  299 fps=1.8 q=53.0 size=       1kB time=00:00:04.42 bitrate=   1.3kbits/s speed=0.0267x    frame=  300 fps=1.8 q=53.0 size=       1kB time=00:00:04.44 bitrate=   1.3kbits/s speed=0.0266x    frame=  301 fps=1.8 q=53.0 size=       1kB time=00:00:04.46 bitrate=   1.3kbits/s speed=0.0266x    frame=  304 fps=1.8 q=53.0 size=       1kB time=00:00:04.52 bitrate=   1.3kbits/s speed=0.0268x    frame=  305 fps=1.8 q=53.0 size=       1kB time=00:00:04.54 bitrate=   1.3kbits/s speed=0.0268x    frame=  306 fps=1.8 q=53.0 size=       1kB time=00:00:04.56 bitrate=   1.3kbits/s speed=0.0267x    frame=  307 fps=1.8 q=53.0 size=       1kB time=00:00:04.58 bitrate=   1.3kbits/s speed=0.0267x    frame=  308 fps=1.8 q=53.0 size=       1kB time=00:00:04.60 bitrate=   1.3kbits/s speed=0.0266x    frame=  310 fps=1.8 q=53.0 size=       1kB time=00:00:04.64 bitrate=   1.3kbits/s speed=0.0268x    frame=  312 fps=1.8 q=53.0 size=       1kB time=00:00:04.68 bitrate=   1.3kbits/s speed=0.0267x    frame=  313 fps=1.8 q=53.0 size=       1kB time=00:00:04.70 bitrate=   1.3kbits/s speed=0.0267x    frame=  315 fps=1.8 q=53.0 size=       1kB time=00:00:04.74 bitrate=   1.2kbits/s speed=0.0267x    frame=  316 fps=1.8 q=53.0 size=       1kB time=00:00:04.76 bitrate=   1.2kbits/s speed=0.0267x    frame=  319 fps=1.8 q=53.0 size=       1kB time=00:00:04.82 bitrate=   1.2kbits/s speed=0.0266x    frame=  320 fps=1.8 q=53.0 size=       1kB time=00:00:04.84 bitrate=   1.2kbits/s speed=0.0266x    frame=  322 fps=1.8 q=53.0 size=       1kB time=00:00:04.88 bitrate=   1.2kbits/s speed=0.0268x    frame=  325 fps=1.8 q=53.0 size=       1kB time=00:00:04.94 bitrate=   1.2kbits/s speed=0.0268x    frame=  326 fps=1.8 q=53.0 size=    2803kB time=00:00:04.96 bitrate=4628.7kbits/s speed=0.0268x    frame=  332 fps=1.8 q=53.0 size=    2803kB time=00:00:05.08 bitrate=4519.3kbits/s speed=0.0274x    frame=  334 fps=1.8 q=53.0 size=    2803kB time=00:00:05.12 bitrate=4484.0kbits/s speed=0.0275x    frame=  337 fps=1.8 q=53.0 size=    2803kB time=00:00:05.18 bitrate=4432.1kbits/s speed=0.0276x    frame=  340 fps=1.8 q=53.0 size=    2803kB time=00:00:05.24 bitrate=4381.4kbits/s speed=0.0278x    frame=  341 fps=1.8 q=53.0 size=    2803kB time=00:00:05.26 bitrate=4364.7kbits/s speed=0.0278x    frame=  342 fps=1.8 q=53.0 size=    2803kB time=00:00:05.28 bitrate=4348.2kbits/s speed=0.0278x    frame=  344 fps=1.8 q=53.0 size=    2803kB time=00:00:05.32 bitrate=4315.5kbits/s speed=0.0279x    frame=  345 fps=1.8 q=53.0 size=    2803kB time=00:00:05.34 bitrate=4299.3kbits/s speed=0.0279x    frame=  346 fps=1.8 q=53.0 size=    2803kB time=00:00:05.36 bitrate=4283.3kbits/s speed=0.0279x    frame=  348 fps=1.8 q=53.0 size=    2803kB time=00:00:05.40 bitrate=4251.6kbits/s speed=0.028x    frame=  349 fps=1.8 q=53.0 size=    2803kB time=00:00:05.42 bitrate=4235.9kbits/s speed=0.028x    frame=  350 fps=1.8 q=53.0 size=    2803kB time=00:00:05.44 bitrate=4220.3kbits/s speed=0.0279x    frame=  351 fps=1.8 q=53.0 size=    2803kB time=00:00:05.46 bitrate=4204.9kbits/s speed=0.0279x    frame=  352 fps=1.8 q=53.0 size=    2803kB time=00:00:05.48 bitrate=4189.5kbits/s speed=0.0279x    frame=  354 fps=1.8 q=53.0 size=    2803kB time=00:00:05.52 bitrate=4159.2kbits/s speed=0.0279x    frame=  355 fps=1.8 q=53.0 size=    2803kB time=00:00:05.54 bitrate=4144.2kbits/s speed=0.0279x    frame=  357 fps=1.8 q=53.0 size=    2803kB time=00:00:05.58 bitrate=4114.5kbits/s speed=0.028x    frame=  358 fps=1.8 q=53.0 size=    2803kB time=00:00:05.60 bitrate=4099.8kbits/s speed=0.0279x    frame=  360 fps=1.8 q=53.0 size=    2803kB time=00:00:05.64 bitrate=4070.7kbits/s speed=0.028x    frame=  361 fps=1.8 q=53.0 size=    2803kB time=00:00:05.66 bitrate=4056.3kbits/s speed=0.0279x    frame=  362 fps=1.8 q=53.0 size=    2803kB time=00:00:05.68 bitrate=4042.0kbits/s speed=0.0279x    frame=  364 fps=1.8 q=53.0 size=    2803kB time=00:00:05.72 bitrate=4013.8kbits/s speed=0.0279x    frame=  366 fps=1.8 q=53.0 size=    2803kB time=00:00:05.76 bitrate=3985.9kbits/s speed=0.0279x    frame=  367 fps=1.8 q=53.0 size=    2803kB time=00:00:05.78 bitrate=3972.1kbits/s speed=0.0279x    frame=  369 fps=1.8 q=53.0 size=    2803kB time=00:00:05.82 bitrate=3944.8kbits/s speed=0.0279x    frame=  370 fps=1.8 q=53.0 size=    2803kB time=00:00:05.84 bitrate=3931.3kbits/s speed=0.0278x    frame=  372 fps=1.8 q=53.0 size=    2803kB time=00:00:05.88 bitrate=3904.6kbits/s speed=0.0279x    frame=  373 fps=1.8 q=53.0 size=    2803kB time=00:00:05.90 bitrate=3891.3kbits/s speed=0.0279x    frame=  374 fps=1.8 q=53.0 size=    2803kB time=00:00:05.92 bitrate=3878.2kbits/s speed=0.0279x    frame=  376 fps=1.8 q=53.0 size=    2803kB time=00:00:05.96 bitrate=3852.2kbits/s speed=0.0278x    frame=  379 fps=1.8 q=53.0 size=    2803kB time=00:00:06.02 bitrate=3813.8kbits/s speed=0.0279x    frame=  380 fps=1.8 q=53.0 size=    2803kB time=00:00:06.04 bitrate=3801.2kbits/s speed=0.0279x    frame=  383 fps=1.7 q=53.0 size=    2803kB time=00:00:06.10 bitrate=3763.8kbits/s speed=0.0279x    frame=  384 fps=1.7 q=53.0 size=    2803kB time=00:00:06.12 bitrate=3751.5kbits/s speed=0.0279x    frame=  387 fps=1.7 q=53.0 size=    2803kB time=00:00:06.18 bitrate=3715.1kbits/s speed=0.0279x    frame=  388 fps=1.7 q=53.0 size=    2803kB time=00:00:06.20 bitrate=3703.1kbits/s speed=0.0279x    frame=  390 fps=1.7 q=53.0 size=    2803kB time=00:00:06.24 bitrate=3679.3kbits/s speed=0.0279x    frame=  391 fps=1.7 q=53.0 size=    2803kB time=00:00:06.26 bitrate=3667.6kbits/s speed=0.0278x    frame=  392 fps=1.7 q=53.0 size=    2803kB time=00:00:06.28 bitrate=3655.9kbits/s speed=0.0279x    frame=  394 fps=1.7 q=53.0 size=    2803kB time=00:00:06.32 bitrate=3632.8kbits/s speed=0.0279x    frame=  395 fps=1.7 q=53.0 size=    2803kB time=00:00:06.34 bitrate=3621.3kbits/s speed=0.0279x    frame=  396 fps=1.7 q=53.0 size=    2803kB time=00:00:06.36 bitrate=3609.9kbits/s speed=0.0278x    frame=  398 fps=1.7 q=53.0 size=    2803kB time=00:00:06.40 bitrate=3587.4kbits/s speed=0.0279x    frame=  399 fps=1.7 q=53.0 size=    2803kB time=00:00:06.42 bitrate=3576.2kbits/s speed=0.0277x    frame=  402 fps=1.7 q=53.0 size=    2803kB time=00:00:06.48 bitrate=3543.1kbits/s speed=0.0278x    frame=  403 fps=1.7 q=53.0 size=    2803kB time=00:00:06.50 bitrate=3532.2kbits/s speed=0.0277x    frame=  404 fps=1.7 q=53.0 size=    2803kB time=00:00:06.52 bitrate=3521.4kbits/s speed=0.0278x    frame=  405 fps=1.7 q=53.0 size=    2803kB time=00:00:06.54 bitrate=3510.6kbits/s speed=0.0278x    frame=  408 fps=1.7 q=53.0 size=    2803kB time=00:00:06.60 bitrate=3478.7kbits/s speed=0.0277x    frame=  411 fps=1.7 q=53.0 size=    2803kB time=00:00:06.66 bitrate=3447.4kbits/s speed=0.0277x    frame=  412 fps=1.7 q=53.0 size=    2803kB time=00:00:06.68 bitrate=3437.0kbits/s speed=0.0277x    frame=  414 fps=1.7 q=53.0 size=    2803kB time=00:00:06.72 bitrate=3416.6kbits/s speed=0.0278x    frame=  415 fps=1.7 q=53.0 size=    2803kB time=00:00:06.74 bitrate=3406.4kbits/s speed=0.0277x    frame=  416 fps=1.7 q=53.0 size=    2803kB time=00:00:06.76 bitrate=3396.4kbits/s speed=0.0277x    frame=  417 fps=1.7 q=53.0 size=    2803kB time=00:00:06.78 bitrate=3386.3kbits/s speed=0.0277x    frame=  419 fps=1.7 q=53.0 size=    2803kB time=00:00:06.82 bitrate=3366.5kbits/s speed=0.0278x    frame=  421 fps=1.7 q=53.0 size=    2803kB time=00:00:06.86 bitrate=3346.9kbits/s speed=0.0277x    frame=  422 fps=1.7 q=53.0 size=    2803kB time=00:00:06.88 bitrate=3337.1kbits/s speed=0.0277x    frame=  424 fps=1.7 q=53.0 size=    2803kB time=00:00:06.92 bitrate=3317.8kbits/s speed=0.0277x    frame=  425 fps=1.7 q=53.0 size=    2803kB time=00:00:06.94 bitrate=3308.3kbits/s speed=0.0277x    frame=  426 fps=1.7 q=53.0 size=    2803kB time=00:00:06.96 bitrate=3298.8kbits/s speed=0.0277x    frame=  428 fps=1.7 q=53.0 size=    2803kB time=00:00:07.00 bitrate=3279.9kbits/s speed=0.0277x    frame=  429 fps=1.7 q=53.0 size=    2803kB time=00:00:07.02 bitrate=3270.6kbits/s speed=0.0276x    frame=  430 fps=1.7 q=53.0 size=    2803kB time=00:00:07.04 bitrate=3261.3kbits/s speed=0.0276x    frame=  432 fps=1.7 q=53.0 size=    2803kB time=00:00:07.08 bitrate=3242.9kbits/s speed=0.0276x    frame=  434 fps=1.7 q=53.0 size=    2803kB time=00:00:07.12 bitrate=3224.7kbits/s speed=0.0276x    frame=  435 fps=1.7 q=53.0 size=    2803kB time=00:00:07.14 bitrate=3215.6kbits/s speed=0.0277x    frame=  436 fps=1.7 q=53.0 size=    2803kB time=00:00:07.16 bitrate=3206.6kbits/s speed=0.0277x    frame=  438 fps=1.7 q=53.0 size=    2803kB time=00:00:07.20 bitrate=3188.8kbits/s speed=0.0276x    frame=  439 fps=1.7 q=53.0 size=    2803kB time=00:00:07.22 bitrate=3180.0kbits/s speed=0.0276x    frame=  442 fps=1.7 q=53.0 size=    2803kB time=00:00:07.28 bitrate=3153.8kbits/s speed=0.0276x    frame=  443 fps=1.7 q=53.0 size=    2803kB time=00:00:07.30 bitrate=3145.2kbits/s speed=0.0276x    frame=  445 fps=1.7 q=53.0 size=    2803kB time=00:00:07.34 bitrate=3128.0kbits/s speed=0.0277x    frame=  446 fps=1.7 q=53.0 size=    2803kB time=00:00:07.36 bitrate=3119.5kbits/s speed=0.0276x    frame=  447 fps=1.7 q=53.0 size=    2803kB time=00:00:07.38 bitrate=3111.1kbits/s speed=0.0276x    frame=  450 fps=1.7 q=53.0 size=    2803kB time=00:00:07.44 bitrate=3086.0kbits/s speed=0.0276x    frame=  451 fps=1.7 q=53.0 size=    2803kB time=00:00:07.46 bitrate=3077.7kbits/s speed=0.0277x    frame=  452 fps=1.7 q=53.0 size=    2803kB time=00:00:07.48 bitrate=3069.5kbits/s speed=0.0276x    frame=  453 fps=1.7 q=53.0 size=    2803kB time=00:00:07.50 bitrate=3061.3kbits/s speed=0.0276x    frame=  454 fps=1.7 q=53.0 size=    2803kB time=00:00:07.52 bitrate=3053.2kbits/s speed=0.0275x    frame=  456 fps=1.7 q=53.0 size=    2803kB time=00:00:07.56 bitrate=3037.0kbits/s speed=0.0276x    frame=  458 fps=1.7 q=53.0 size=    2803kB time=00:00:07.60 bitrate=3021.0kbits/s speed=0.0276x    frame=  459 fps=1.7 q=53.0 size=    2803kB time=00:00:07.62 bitrate=3013.1kbits/s speed=0.0276x    frame=  460 fps=1.7 q=53.0 size=    2803kB time=00:00:07.64 bitrate=3005.2kbits/s speed=0.0276x    frame=  461 fps=1.7 q=53.0 size=    2803kB time=00:00:07.66 bitrate=2997.4kbits/s speed=0.0276x    frame=  462 fps=1.7 q=53.0 size=    2803kB time=00:00:07.68 bitrate=2989.6kbits/s speed=0.0276x    frame=  463 fps=1.7 q=53.0 size=    2803kB time=00:00:07.70 bitrate=2981.8kbits/s speed=0.0276x    frame=  466 fps=1.7 q=53.0 size=    2803kB time=00:00:07.76 bitrate=2958.7kbits/s speed=0.0276x    frame=  467 fps=1.7 q=53.0 size=    2803kB time=00:00:07.78 bitrate=2951.1kbits/s speed=0.0276x    frame=  468 fps=1.6 q=53.0 size=    2803kB time=00:00:07.80 bitrate=2943.6kbits/s speed=0.0275x    frame=  469 fps=1.6 q=53.0 size=    2803kB time=00:00:07.82 bitrate=2936.0kbits/s speed=0.0275x    frame=  471 fps=1.7 q=53.0 size=    2803kB time=00:00:07.86 bitrate=2921.1kbits/s speed=0.0276x    frame=  473 fps=1.7 q=53.0 size=    2803kB time=00:00:07.90 bitrate=2906.3kbits/s speed=0.0276x    frame=  474 fps=1.6 q=53.0 size=    2803kB time=00:00:07.92 bitrate=2899.0kbits/s speed=0.0275x    frame=  475 fps=1.6 q=53.0 size=    2803kB time=00:00:07.94 bitrate=2891.7kbits/s speed=0.0275x    frame=  476 fps=1.6 q=53.0 size=    2803kB time=00:00:07.96 bitrate=2884.4kbits/s speed=0.0275x    frame=  479 fps=1.6 q=53.0 size=    2803kB time=00:00:08.02 bitrate=2862.8kbits/s speed=0.0275x    frame=  480 fps=1.6 q=53.0 size=    2803kB time=00:00:08.04 bitrate=2855.7kbits/s speed=0.0275x    frame=  482 fps=1.6 q=53.0 size=    2803kB time=00:00:08.08 bitrate=2841.6kbits/s speed=0.0275x    frame=  483 fps=1.6 q=53.0 size=    2803kB time=00:00:08.10 bitrate=2834.6kbits/s speed=0.0274x    frame=  484 fps=1.6 q=53.0 size=    2803kB time=00:00:08.12 bitrate=2827.6kbits/s speed=0.0275x    frame=  487 fps=1.6 q=53.0 size=    2803kB time=00:00:08.18 bitrate=2806.8kbits/s speed=0.0275x    frame=  489 fps=1.6 q=53.0 size=    2803kB time=00:00:08.22 bitrate=2793.2kbits/s speed=0.0275x    frame=  490 fps=1.6 q=53.0 size=    2803kB time=00:00:08.24 bitrate=2786.4kbits/s speed=0.0275x    frame=  491 fps=1.6 q=53.0 size=    2803kB time=00:00:08.26 bitrate=2779.7kbits/s speed=0.0274x    frame=  493 fps=1.6 q=53.0 size=    2803kB time=00:00:08.30 bitrate=2766.3kbits/s speed=0.0275x    frame=  495 fps=1.6 q=53.0 size=    2803kB time=00:00:08.34 bitrate=2753.0kbits/s speed=0.0274x    frame=  497 fps=1.6 q=53.0 size=    2803kB time=00:00:08.38 bitrate=2739.9kbits/s speed=0.0275x    frame=  498 fps=1.6 q=53.0 size=    2803kB time=00:00:08.40 bitrate=2733.3kbits/s speed=0.0275x    frame=  499 fps=1.6 q=53.0 size=    2803kB time=00:00:08.42 bitrate=2726.9kbits/s speed=0.0274x    frame=  500 fps=1.6 q=53.0 size=    2803kB time=00:00:08.44 bitrate=2720.4kbits/s speed=0.0273x    frame=  500 fps=1.4 q=-1.0 Lsize=    5634kB time=00:00:09.94 bitrate=4643.0kbits/s speed=0.0274x    
video:5630kB audio:0kB subtitle:0kB other streams:0kB global headers:0kB muxing overhead: 0.077068%
bench: utime=1395.708s
bench: maxrss=3306716kB
[libx264 @ 0x3bec1c0] frame I:2     Avg QP:43.10  size:158180
[libx264 @ 0x3bec1c0] frame P:114   Avg QP:50.31  size: 22959
[libx264 @ 0x3bec1c0] frame B:384   Avg QP:50.86  size:  7372
[libx264 @ 0x3bec1c0] consecutive B-frames:  0.4%  0.0%  1.2% 60.0% 30.0%  8.4%  0.0%  0.0%  0.0%
[libx264 @ 0x3bec1c0] mb I  I16..4: 27.2% 69.0%  3.9%
[libx264 @ 0x3bec1c0] mb P  I16..4:  5.0%  4.8%  0.0%  P16..4: 24.6%  0.6%  1.9%  0.0%  0.0%    skip:63.1%
[libx264 @ 0x3bec1c0] mb B  I16..4:  0.0%  0.0%  0.0%  B16..8: 22.0%  0.2%  0.0%  direct: 0.1%  skip:77.6%  L0:39.7% L1:60.3% BI: 0.1%
[libx264 @ 0x3bec1c0] final ratefactor: 45.01
[libx264 @ 0x3bec1c0] 8x8 transform intra:51.9% inter:96.2%
[libx264 @ 0x3bec1c0] direct mvs  spatial:99.2% temporal:0.8%
[libx264 @ 0x3bec1c0] coded y,uvDC,uvAC intra: 9.2% 31.3% 3.1% inter: 0.2% 2.7% 0.0%
[libx264 @ 0x3bec1c0] i16 v,h,dc,p: 52% 24%  4% 21%
[libx264 @ 0x3bec1c0] i8 v,h,dc,ddl,ddr,vr,hd,vl,hu:  7%  3% 56%  6%  7%  6%  6%  5%  4%
[libx264 @ 0x3bec1c0] i4 v,h,dc,ddl,ddr,vr,hd,vl,hu:  7%  4%  2% 14% 16% 15% 15% 11% 16%
[libx264 @ 0x3bec1c0] i8c dc,h,v,p: 76% 12%  9%  3%
[libx264 @ 0x3bec1c0] Weighted P-Frames: Y:1.8% UV:0.9%
[libx264 @ 0x3bec1c0] ref P L0: 51.5%  0.7% 15.8%  5.5%  4.8%  4.3%  4.2%  1.8%  1.7%  1.6%  1.5%  1.4%  1.4%  1.4%  1.5%  0.9%
[libx264 @ 0x3bec1c0] ref B L0: 90.1%  3.8%  1.8%  0.7%  0.6%  0.5%  0.5%  0.3%  0.3%  0.3%  0.3%  0.3%  0.3%  0.2%  0.2%
[libx264 @ 0x3bec1c0] ref B L1: 98.8%  1.2%
[libx264 @ 0x3bec1c0] kb/s:4611.47
